<svg width="139" height="43" viewBox="0 0 139 43" fill="none" xmlns="http://www.w3.org/2000/svg">
<path d="M23.1152 0.186H24.3392V23H20.7352V8.924L14.3092 17.356H13.0852L6.62522 8.89V23H3.02122V0.186H4.27922L13.6972 12.732L23.1152 0.186ZM45.6442 23L44.0462 19.26H33.9482L32.3502 23H28.5082L38.4022 0.186H39.6262L49.5202 23H45.6442ZM42.7542 16.166L39.0142 6.884L35.2402 16.166H42.7542ZM65.8632 0.559999H69.9092L60.0152 23.374H58.7912L48.8972 0.559999H52.9432L59.4032 16.166L65.8632 0.559999ZM74.0829 23V0.559999H88.8389V3.79H77.6869V9.536H86.0849V12.664H77.6869V19.77H89.2469V23H74.0829ZM94.0404 23V0.559999H97.6444V23H94.0404ZM102.268 11.066L112.604 23H108.15L97.7464 11.066L107.164 0.559999H111.584L102.268 11.066ZM113.733 11.78C113.631 5.354 119.105 0.0839992 125.497 0.186C131.855 0.0839992 137.431 5.354 137.295 11.78C137.431 18.206 131.855 23.476 125.497 23.374C119.071 23.476 113.597 18.206 113.733 11.78ZM133.589 11.746C133.589 7.054 130.121 3.484 125.531 3.484C120.873 3.484 117.473 7.02 117.473 11.746C117.473 16.54 120.873 20.076 125.531 20.076C130.121 20.076 133.589 16.54 133.589 11.746Z" fill="white"/>
<path d="M9.3072 32.288C9.3072 32.776 9.1952 33.224 8.9712 33.632C8.7472 34.032 8.4032 34.356 7.9392 34.604C7.4752 34.852 6.8992 34.976 6.2112 34.976H4.9392V38H2.8872V29.576H6.2112C6.8832 29.576 7.4512 29.692 7.9152 29.924C8.3792 30.156 8.7272 30.476 8.9592 30.884C9.1912 31.292 9.3072 31.76 9.3072 32.288ZM6.0552 33.344C6.4472 33.344 6.7392 33.252 6.9312 33.068C7.1232 32.884 7.2192 32.624 7.2192 32.288C7.2192 31.952 7.1232 31.692 6.9312 31.508C6.7392 31.324 6.4472 31.232 6.0552 31.232H4.9392V33.344H6.0552ZM15.7515 38L13.9995 34.82H13.5075V38H11.4555V29.576H14.8995C15.5635 29.576 16.1275 29.692 16.5915 29.924C17.0635 30.156 17.4155 30.476 17.6475 30.884C17.8795 31.284 17.9955 31.732 17.9955 32.228C17.9955 32.788 17.8355 33.288 17.5155 33.728C17.2035 34.168 16.7395 34.48 16.1235 34.664L18.0675 38H15.7515ZM13.5075 33.368H14.7795C15.1555 33.368 15.4355 33.276 15.6195 33.092C15.8115 32.908 15.9075 32.648 15.9075 32.312C15.9075 31.992 15.8115 31.74 15.6195 31.556C15.4355 31.372 15.1555 31.28 14.7795 31.28H13.5075V33.368ZM24.3476 38.084C23.5556 38.084 22.8276 37.9 22.1636 37.532C21.5076 37.164 20.9836 36.652 20.5916 35.996C20.2076 35.332 20.0156 34.588 20.0156 33.764C20.0156 32.94 20.2076 32.2 20.5916 31.544C20.9836 30.888 21.5076 30.376 22.1636 30.008C22.8276 29.64 23.5556 29.456 24.3476 29.456C25.1396 29.456 25.8636 29.64 26.5196 30.008C27.1836 30.376 27.7036 30.888 28.0796 31.544C28.4636 32.2 28.6556 32.94 28.6556 33.764C28.6556 34.588 28.4636 35.332 28.0796 35.996C27.6956 36.652 27.1756 37.164 26.5196 37.532C25.8636 37.9 25.1396 38.084 24.3476 38.084ZM24.3476 36.212C25.0196 36.212 25.5556 35.988 25.9556 35.54C26.3636 35.092 26.5676 34.5 26.5676 33.764C26.5676 33.02 26.3636 32.428 25.9556 31.988C25.5556 31.54 25.0196 31.316 24.3476 31.316C23.6676 31.316 23.1236 31.536 22.7156 31.976C22.3156 32.416 22.1156 33.012 22.1156 33.764C22.1156 34.508 22.3156 35.104 22.7156 35.552C23.1236 35.992 23.6676 36.212 24.3476 36.212ZM34.8612 38.084C34.0692 38.084 33.3412 37.9 32.6772 37.532C32.0212 37.164 31.4972 36.652 31.1052 35.996C30.7212 35.332 30.5292 34.588 30.5292 33.764C30.5292 32.94 30.7212 32.2 31.1052 31.544C31.4972 30.888 32.0212 30.376 32.6772 30.008C33.3412 29.64 34.0692 29.456 34.8612 29.456C35.6532 29.456 36.3772 29.64 37.0332 30.008C37.6972 30.376 38.2172 30.888 38.5932 31.544C38.9772 32.2 39.1692 32.94 39.1692 33.764C39.1692 34.588 38.9772 35.332 38.5932 35.996C38.2092 36.652 37.6892 37.164 37.0332 37.532C36.3772 37.9 35.6532 38.084 34.8612 38.084ZM34.8612 36.212C35.5332 36.212 36.0692 35.988 36.4692 35.54C36.8772 35.092 37.0812 34.5 37.0812 33.764C37.0812 33.02 36.8772 32.428 36.4692 31.988C36.0692 31.54 35.5332 31.316 34.8612 31.316C34.1812 31.316 33.6372 31.536 33.2292 31.976C32.8292 32.416 32.6292 33.012 32.6292 33.764C32.6292 34.508 32.8292 35.104 33.2292 35.552C33.6372 35.992 34.1812 36.212 34.8612 36.212ZM46.8748 29.576V31.22H43.4428V32.996H46.0108V34.592H43.4428V38H41.3908V29.576H46.8748ZM56.6403 38.084C55.8483 38.084 55.1203 37.9 54.4563 37.532C53.8003 37.164 53.2763 36.652 52.8843 35.996C52.5003 35.332 52.3083 34.588 52.3083 33.764C52.3083 32.94 52.5003 32.2 52.8843 31.544C53.2763 30.888 53.8003 30.376 54.4563 30.008C55.1203 29.64 55.8483 29.456 56.6403 29.456C57.4323 29.456 58.1563 29.64 58.8123 30.008C59.4763 30.376 59.9963 30.888 60.3723 31.544C60.7563 32.2 60.9483 32.94 60.9483 33.764C60.9483 34.588 60.7563 35.332 60.3723 35.996C59.9883 36.652 59.4683 37.164 58.8123 37.532C58.1563 37.9 57.4323 38.084 56.6403 38.084ZM56.6403 36.212C57.3123 36.212 57.8483 35.988 58.2483 35.54C58.6563 35.092 58.8603 34.5 58.8603 33.764C58.8603 33.02 58.6563 32.428 58.2483 31.988C57.8483 31.54 57.3123 31.316 56.6403 31.316C55.9603 31.316 55.4163 31.536 55.0083 31.976C54.6083 32.416 54.4083 33.012 54.4083 33.764C54.4083 34.508 54.6083 35.104 55.0083 35.552C55.4163 35.992 55.9603 36.212 56.6403 36.212ZM68.6539 29.576V31.22H65.2219V32.996H67.7899V34.592H65.2219V38H63.1699V29.576H68.6539ZM77.5913 29.576C78.4793 29.576 79.2553 29.752 79.9193 30.104C80.5833 30.456 81.0953 30.952 81.4553 31.592C81.8233 32.224 82.0073 32.956 82.0073 33.788C82.0073 34.612 81.8233 35.344 81.4553 35.984C81.0953 36.624 80.5793 37.12 79.9073 37.472C79.2433 37.824 78.4713 38 77.5913 38H74.4353V29.576H77.5913ZM77.4593 36.224C78.2353 36.224 78.8393 36.012 79.2713 35.588C79.7033 35.164 79.9193 34.564 79.9193 33.788C79.9193 33.012 79.7033 32.408 79.2713 31.976C78.8393 31.544 78.2353 31.328 77.4593 31.328H76.4873V36.224H77.4593ZM86.2861 31.22V32.924H89.0341V34.508H86.2861V36.356H89.3941V38H84.2341V29.576H89.3941V31.22H86.2861ZM93.8583 36.416H96.5463V38H91.8063V29.576H93.8583V36.416ZM100.657 29.576V38H98.605V29.576H100.657ZM111.132 29.576L108.144 38H105.576L102.588 29.576H104.772L106.86 35.936L108.96 29.576H111.132ZM115.122 31.22V32.924H117.87V34.508H115.122V36.356H118.23V38H113.07V29.576H118.23V31.22H115.122ZM124.938 38L123.186 34.82H122.694V38H120.642V29.576H124.086C124.75 29.576 125.314 29.692 125.778 29.924C126.25 30.156 126.602 30.476 126.834 30.884C127.066 31.284 127.182 31.732 127.182 32.228C127.182 32.788 127.022 33.288 126.702 33.728C126.39 34.168 125.926 34.48 125.31 34.664L127.254 38H124.938ZM122.694 33.368H123.966C124.342 33.368 124.622 33.276 124.806 33.092C124.998 32.908 125.094 32.648 125.094 32.312C125.094 31.992 124.998 31.74 124.806 31.556C124.622 31.372 124.342 31.28 123.966 31.28H122.694V33.368ZM136.774 29.576L133.858 35.216V38H131.806V35.216L128.89 29.576H131.218L132.85 33.104L134.47 29.576H136.774Z" fill="white"/>
</svg>
